<?xml version="1.0" encoding="UTF-8"?><svg id="Layer_1" xmlns="http://www.w3.org/2000/svg" viewBox="0 0 180 240"><defs><style>.cls-1{fill:#ef4423;}</style></defs><path class="cls-1" d="m90,0C40.37,0,0,40.37,0,90l.11,105.11c0,24.79,20.1,44.89,44.89,44.89s44.89-20.1,44.89-44.89l-.11-15.47c.07,0,.15,0,.22,0,23.97,0,46.51-9.23,63.46-26,17.11-16.92,26.54-39.52,26.54-63.64C180,40.37,139.63,0,90,0Zm42.58,132.36c-11.32,11.19-26.38,17.35-42.42,17.35-.15,0-.3,0-.46,0v-29.93c.15,0,.3.01.46.01,8.11,0,15.7-3.09,21.38-8.71,5.66-5.59,8.77-13.08,8.77-21.08,0-16.62-13.52-30.15-30.15-30.15s-30.15,13.52-30.15,30.15c0,.17,0,.35.01.52h-.25l.07,32.83.27,71.76c0,8.26-6.7,14.96-14.96,14.96s-14.96-6.7-14.96-14.96l-.11-105.11c0-33.12,26.95-60.07,60.07-60.07s60.07,26.95,60.07,60.07c0,16.06-6.27,31.1-17.65,42.36Zm-42.74-42.51s.06-.05.07-.06c0,0,.03,0,.09,0,.05,0,.07,0,.08,0,.02.01.06.04.08.07-.11.01-.21.01-.32,0Z"/></svg>